<?xml version="1.0" encoding="utf-8"?>
<!-- Generator: Adobe Illustrator 22.1.0, SVG Export Plug-In . SVG Version: 6.00 Build 0)  -->
<svg version="1.1" id="Layer_1" xmlns="http://www.w3.org/2000/svg" xmlns:xlink="http://www.w3.org/1999/xlink" x="0px" y="0px"
	 viewBox="0 0 100 125" style="enable-background:new 0 0 100 125;" xml:space="preserve">
<style type="text/css">
	.st0{display:none;}
	.st1{display:inline;fill:#E0BFA4;}
	.st2{fill:none;}
</style>
<path d="M53.8,94.9h9.4v-6.1H17.4v0.1v-0.7h-4.7v3.3c0,1.9,1.5,3.4,3.4,3.4h25.7 M50.2,91.9H49H50.2z M46.9,91.9h-1.2H46.9z"/>
<path d="M17.4,48.9h59.9v18.4l4.7-2.1v-19c0-1.9-1.5-3.4-3.4-3.4H16.1c-1.9,0-3.4,1.5-3.4,3.4v7.2h4.7V48.9z"/>
<polygon points="48.5,65.5 45.2,55.3 41.9,65.5 31.2,65.5 39.8,71.8 36.5,82 45.2,75.7 53.9,82 50.6,71.8 59.3,65.5 "/>
<path d="M23.1,83.1V58.5c0-1.7-1.4-3-3.1-3H8.3c-1.7,0-3.1,1.4-3.1,3v24.6c0,1.7,1.4,3,3.1,3h11.8C21.7,86.1,23.1,84.7,23.1,83.1z
	 M14.2,83.8c-0.8,0-1.5-0.7-1.5-1.5c0-0.8,0.7-1.5,1.5-1.5s1.5,0.7,1.5,1.5C15.7,83.2,15,83.8,14.2,83.8z M7.7,79.3V60.1h12.9v19.2
	H7.7z"/>
<polygon points="18.9,66.9 15.3,66.9 14.2,63.5 13.1,66.9 9.4,66.9 12.4,69.1 11.2,72.5 14.2,70.4 17.1,72.5 16,69.1 "/>
<path d="M93.1,74.2h-0.5v-3.3c0-0.5-0.2-1-0.6-1.3c-0.4-0.3-0.9-0.5-1.4-0.4l-0.9,0.2l-1.8,0.4v-2.6c0-0.6-0.3-1.1-0.8-1.4
	s-1.1-0.4-1.6-0.1l-19.3,8.5c0,0-0.1,0-0.1,0.1c-0.1,0-0.1,0.1-0.2,0.1c-0.1,0.1-0.2,0.1-0.3,0.2c0,0-0.1,0.1-0.1,0.2
	c-0.1,0.1-0.1,0.2-0.2,0.3c0,0.1-0.1,0.1-0.1,0.2c-0.1,0.2-0.1,0.4-0.1,0.5V76v31.9v0.2c0,1,0.8,1.7,1.7,1.7h4.3h22
	c0.9,0,1.7-0.8,1.7-1.7V75.9C94.8,75,94,74.2,93.1,74.2z M68.6,106.3v-0.6v-0.5V77.7h22.8v28.7L68.6,106.3L68.6,106.3z M84.4,70.4
	l-2.5,0.5l2.5-1.1V70.4z M89.1,74.2H83l6.1-1.2V74.2z"/>
<polygon points="77.1,92.6 75.4,98 80,94.7 84.6,98 82.8,92.6 87.4,89.3 81.7,89.3 80,83.9 78.2,89.3 72.5,89.3 "/>
<path d="M53.4,107.4l-0.9-13.3H37.9L37,107.4c0,0.6-0.6,1.1-1.2,1.1h-8.5v1.4h35.8v-1.4h-8.5C54,108.6,53.4,108.1,53.4,107.4z"/>
</svg>
