<?xml version="1.0" encoding="utf-8"?>
<!-- Generator: Adobe Illustrator 22.1.0, SVG Export Plug-In . SVG Version: 6.00 Build 0)  -->
<svg version="1.1" id="Layer_1" xmlns="http://www.w3.org/2000/svg" xmlns:xlink="http://www.w3.org/1999/xlink" x="0px" y="0px"
	 viewBox="0 0 100 125" style="enable-background:new 0 0 100 125;" xml:space="preserve">
<style type="text/css">
	.st0{display:none;}
	.st1{display:inline;fill:#E0BFA4;}
	.st2{fill:none;}
</style>
<g class="st0">
	<rect x="-823.3" y="-226.3" class="st1" width="1596.2" height="1545.2"/>
</g>
<g>
	<path d="M40.2,64.5c2.6,0,5.1-0.3,7.5-0.9c-0.7-0.8-1.4-1.7-1.9-2.7c-1.8,0.3-3.6,0.5-5.5,0.5c-1.9,0-3.8-0.2-5.7-0.6l-0.6-0.1
		l-10.5,6.5l3.2-9.2l-1-0.6c-5.8-3.6-9.2-9.1-9.2-14.9c0-10.4,10.7-18.9,23.8-18.9c9.6,0,17.8,4.5,21.6,11c1.1-0.2,2.1-0.3,3.2-0.3
		c-4-8-13.6-13.7-24.8-13.7c-14.8,0-26.8,9.8-26.8,22c0,6.6,3.5,12.6,9.6,16.8l-5.2,15L34.5,64C36.4,64.3,38.3,64.5,40.2,64.5z"/>
	<path d="M47,53.3c0,3.2,1.2,6.2,3.2,8.7c3.4,4.2,9.3,7,15.9,7c2,0,3.9-0.3,5.8-0.8l14.3,6.3l-5.8-10.8c0.6-0.6,1.2-1.2,1.7-1.9
		c2-2.5,3.1-5.5,3.1-8.6c0-8.7-8.6-15.7-19.1-15.7S47,44.6,47,53.3z M82.2,53.3c0,3.4-1.7,6.5-4.7,8.9l-1,0.8l2.8,5.2L72.1,65
		l-0.5,0.2c-1.8,0.5-3.7,0.8-5.5,0.8C57.2,66,50,60.3,50,53.3s7.2-12.7,16.1-12.7S82.2,46.3,82.2,53.3z"/>
	<circle cx="56.9" cy="53.8" r="2.4"/>
	<circle cx="66.1" cy="53.8" r="2.4"/>
	<circle cx="75.2" cy="53.8" r="2.4"/>
	<path d="M18.1,96.9c3.6,0,6.7-2.4,7.7-5.7c0.2-0.7,0.4-1.5,0.4-2.4c0-2.9-1.5-5.4-3.8-6.9c-1.2-0.8-2.7-1.2-4.3-1.2
		c-4.5,0-8.1,3.6-8.1,8.1C10,93.3,13.6,96.9,18.1,96.9z"/>
	<path d="M28.1,109.9h1.5h1.5c0-5.5-4.5-9.9-9.9-9.9h-6.3c-5.5,0-9.9,4.5-9.9,9.9h1.5H8"/>
	<path d="M50,96.9c3.6,0,6.7-2.4,7.7-5.7c0.2-0.7,0.4-1.5,0.4-2.4c0-3.7-2.5-6.8-5.8-7.8c-0.7-0.2-1.5-0.3-2.3-0.3s-1.5,0.1-2.3,0.3
		c-3.4,1-5.8,4.1-5.8,7.8c0,0.8,0.1,1.6,0.4,2.4C43.3,94.5,46.3,96.9,50,96.9z"/>
	<path d="M60.1,109.9h1.5h1.5c0-5.5-4.5-9.9-9.9-9.9h-6.3c-5.5,0-9.9,4.5-9.9,9.9h1.5h1.5"/>
	<path d="M73.8,88.8c0,0.8,0.1,1.6,0.4,2.4c1,3.3,4.1,5.7,7.7,5.7c4.5,0,8.1-3.6,8.1-8.1s-3.6-8.1-8.1-8.1c-1.6,0-3,0.5-4.3,1.2
		C75.4,83.4,73.8,85.9,73.8,88.8z"/>
	<path d="M92,109.9h1.5H95c0-5.5-4.5-9.9-9.9-9.9h-6.3c-5.5,0-9.9,4.5-9.9,9.9h1.5h1.5"/>
</g>
</svg>
