<?xml version="1.0" encoding="utf-8"?>
<!-- Generator: Adobe Illustrator 22.1.0, SVG Export Plug-In . SVG Version: 6.00 Build 0)  -->
<svg version="1.1" id="Layer_1" xmlns="http://www.w3.org/2000/svg" xmlns:xlink="http://www.w3.org/1999/xlink" x="0px" y="0px"
	 viewBox="0 0 100 125" style="enable-background:new 0 0 100 125;" xml:space="preserve">
<style type="text/css">
	.st0{display:none;}
	.st1{display:inline;fill:#E0BFA4;}
	.st2{fill:none;}
</style>
<g class="st0">
	<rect x="-1303.3" y="-226.3" class="st1" width="1596.2" height="1545.2"/>
</g>
<path d="M84.3,16.5H33.4c-3.3,0-5.7,2.7-5.7,5.9v6.5h5.7v-5.3h50.9v70.4H33.4v-6.1h-5.7v15.3c0,3.3,2.4,6.2,5.7,6.2h50.9
	c3.3,0,5.7-2.4,5.7-5.7V22.2C90,18.9,87.6,16.5,84.3,16.5z M60,107.1c-2.9,0-5.3-2.4-5.3-5.3c0-2.9,2.4-5.3,5.3-5.3
	c2.9,0,5.3,2.4,5.3,5.3C65.3,104.7,62.9,107.1,60,107.1z"/>
<rect x="55.1" y="62.4" width="24.4" height="19.8"/>
<rect x="26.9" y="62.9" width="25" height="20.3"/>
<rect x="10.1" y="62.6" width="14.1" height="12.9"/>
<rect x="50" y="38.9" width="30.5" height="20.7"/>
<rect x="9.9" y="47.9" width="17.3" height="11.9"/>
<rect x="29.6" y="34.4" width="17.2" height="26"/>
</svg>
