<?xml version="1.0" encoding="utf-8"?>
<!-- Generator: Adobe Illustrator 22.1.0, SVG Export Plug-In . SVG Version: 6.00 Build 0)  -->
<svg version="1.1" id="Layer_1" xmlns="http://www.w3.org/2000/svg" xmlns:xlink="http://www.w3.org/1999/xlink" x="0px" y="0px"
	 viewBox="0 0 100 125" style="enable-background:new 0 0 100 125;" xml:space="preserve">
<style type="text/css">
	.st0{display:none;}
	.st1{display:inline;fill:#E0BFA4;}
	.st2{fill:none;}
</style>
<g class="st0">
	<rect x="-943.3" y="-226.3" class="st1" width="1596.2" height="1545.2"/>
</g>
<g>
	<path d="M22.4,56.8L3,37.4c-1.4-1.4-1.4-3.6,0-4.9c0,0,0,0,0,0l17.8-17.8c1.4-1.4,3.6-1.4,4.9,0c0,0,0,0,0,0l19.4,19.4
		c0.3,0.3,0.3,0.8,0,1.2c0,0,0,0,0,0L41.4,39c-0.3,0.3-0.8,0.3-1.2,0L38.3,37l-3.5,3.5c-0.7,0.7-1.8,0.7-2.5,0
		c-0.1-0.1-0.1-0.2-0.2-0.2c-0.5-0.7-0.4-1.7,0.3-2.3l3.4-3.4l-2.5-2.5l-3.5,3.5c-0.7,0.7-1.8,0.7-2.5,0c-0.1-0.1-0.1-0.2-0.2-0.2
		c-0.5-0.7-0.4-1.7,0.3-2.3l3.4-3.4l-2.5-2.5l-3.5,3.5c-0.7,0.7-1.8,0.7-2.5,0c-0.1-0.1-0.1-0.2-0.2-0.2c-0.5-0.7-0.4-1.7,0.3-2.3
		l3.4-3.4l-2.5-2.5L10.4,34.9l16.9,17c0.3,0.3,0.3,0.8,0,1.2c0,0,0,0,0,0l-3.7,3.7C23.3,57.1,22.7,57.1,22.4,56.8
		C22.4,56.8,22.4,56.8,22.4,56.8z M77.6,66.5c-0.3-0.3-0.8-0.3-1.2,0c0,0,0,0,0,0l-3.7,3.7c-0.3,0.3-0.3,0.8,0,1.2c0,0,0,0,0,0
		l1.9,1.9l-3.4,3.4c-0.6,0.6-0.7,1.6-0.3,2.3c0.6,0.8,1.7,1,2.5,0.4c0.1-0.1,0.2-0.1,0.2-0.2l3.5-3.5l2.5,2.5l-3.4,3.4
		c-0.6,0.6-0.7,1.6-0.3,2.3c0.6,0.8,1.7,1,2.5,0.4c0.1-0.1,0.2-0.1,0.2-0.2l3.5-3.5l2.5,2.5l-3.4,3.4c-0.6,0.6-0.7,1.6-0.3,2.3
		c0.6,0.8,1.7,1,2.5,0.4c0.1-0.1,0.2-0.1,0.2-0.2l3.5-3.5l2.5,2.5l-12.9,12.9L59.8,84.3c-0.3-0.3-0.8-0.3-1.2,0c0,0,0,0,0,0
		l-3.7,3.7c-0.3,0.3-0.3,0.8,0,1.2c0,0,0,0,0,0l19.4,19.4c1.4,1.4,3.6,1.4,4.9,0c0,0,0,0,0,0L97,90.8c1.4-1.4,1.4-3.6,0-4.9
		c0,0,0,0,0,0L77.6,66.5z M95.4,37.8L36.6,96.5c-1.2,1.2-2.6,2-4.2,2.5l-20.5,5.9c-1.5,0.4-3,0-4.1-1.1l0,0
		c-1.1-1.1-1.5-2.6-1.1-4.1l5.9-20.5c0.5-1.6,1.3-3,2.5-4.2l58.8-58.8c3.3-3.3,8.7-3.3,12,0l9.5,9.4C98.7,29,98.7,34.4,95.4,37.8
		C95.4,37.7,95.4,37.7,95.4,37.8L95.4,37.8z M80.3,22.8c-1.1-0.7-2.5-0.5-3.5,0.4L19.9,80c-0.4,0.4-0.7,1-0.8,1.7l-2.7,9.6l4,4
		l10.1-2.9c0.4-0.1,0.8-0.4,1.1-0.7l1.5-1.5l-0.1-0.1c-2.3-1.4-4.4-3.1-6.3-5c-0.5-0.5-1-1.1-1.5-1.6c-0.3-0.3-0.3-0.9,0-1.2
		l55.4-55.4c1-1.1,1-2.8,0-3.8C80.5,23,80.4,22.9,80.3,22.8L80.3,22.8z"/>
</g>
</svg>
