<?xml version="1.0" encoding="utf-8"?>
<!-- Generator: Adobe Illustrator 22.1.0, SVG Export Plug-In . SVG Version: 6.00 Build 0)  -->
<svg version="1.1" id="Layer_1" xmlns="http://www.w3.org/2000/svg" xmlns:xlink="http://www.w3.org/1999/xlink" x="0px" y="0px"
	 viewBox="0 0 100 125" style="enable-background:new 0 0 100 125;" xml:space="preserve">
<style type="text/css">
	.st0{display:none;}
	.st1{display:inline;fill:#E0BFA4;}
	.st2{fill:none;}
</style>
<g class="st0">
	<rect x="-1183.3" y="-226.3" class="st1" width="1596.2" height="1545.2"/>
</g>
<path d="M22.9,43.7c1.1,0,2.2-0.2,3.1-0.7l2.8,2.7c1-1.2,2.1-2.3,3.3-3.3l-2.8-2.8c0.4-0.9,0.7-1.9,0.7-3c0-3.8-3.1-7-7-7
	s-7,3.1-7,7S19,43.7,22.9,43.7z M22.9,34.5c1.4,0,2.4,1,2.4,2.3s-1.1,2.3-2.4,2.3s-2.4-1-2.4-2.3S21.6,34.5,22.9,34.5z"/>
<path d="M48.3,32.1v3.8c0.7-0.1,1.5-0.1,2.3-0.1c0.8,0,1.5,0.1,2.3,0.1v-3.8c2.7-0.9,4.7-3.5,4.7-6.5c0-3.8-3.1-7-7-7s-7,3.1-7,7
	C43.6,28.6,45.5,31.1,48.3,32.1z M50.6,23.2c1.4,0,2.4,1,2.4,2.3c0,1.3-1.1,2.3-2.4,2.3s-2.4-1-2.4-2.3S49.2,23.2,50.6,23.2z"/>
<path d="M52.9,95.9v-3.8c-0.7,0.1-1.5,0.1-2.3,0.1s-1.5-0.1-2.3-0.1v3.8c-2.7,0.9-4.7,3.5-4.7,6.5c0,3.8,3.1,7,7,7s7-3.1,7-7
	C57.6,99.4,55.7,96.9,52.9,95.9z M50.6,104.8c-1.4,0-2.4-1-2.4-2.3c0-1.3,1.1-2.3,2.4-2.3s2.4,1,2.4,2.3
	C53,103.7,52,104.8,50.6,104.8z"/>
<path d="M89.8,57c-3.1,0-5.7,1.9-6.6,4.6h-4c0.1,0.7,0.1,1.5,0.1,2.3c0,0.8-0.1,1.5-0.1,2.3h4c1,2.7,3.6,4.6,6.6,4.6
	c3.9,0,7-3.1,7-7C96.8,60.2,93.7,57,89.8,57z M89.8,66.3c-1.4,0-2.4-1-2.4-2.3s1.1-2.3,2.4-2.3c1.3,0,2.4,1,2.4,2.3
	S91.1,66.3,89.8,66.3z"/>
<path d="M18,66.3h4c-0.1-0.7-0.1-1.5-0.1-2.3c0-0.8,0.1-1.5,0.1-2.3h-4c-1-2.7-3.6-4.6-6.6-4.6c-3.9-0.1-7,3.1-7,6.9s3.1,7,7,7
	C14.5,71,17.1,69,18,66.3z M11.4,66.3C10,66.3,9,65.3,9,64s1.1-2.3,2.4-2.3s2.4,1,2.4,2.3S12.8,66.3,11.4,66.3z"/>
<path d="M78,84c-1.1,0-2.2,0.2-3.1,0.7l-2.5-2.5c-1,1.2-2.1,2.3-3.3,3.3l2.5,2.5c-0.4,0.9-0.7,1.9-0.7,3c0,3.8,3.1,7,7,7
	c3.9,0,7-3.1,7-7S81.9,84,78,84z M78,93.3c-1.4,0-2.4-1-2.4-2.3c0-1.3,1.1-2.3,2.4-2.3s2.4,1,2.4,2.3C80.4,92.2,79.4,93.3,78,93.3z"
	/>
<path d="M28.7,82.2l-2.8,2.7c-0.9-0.4-2-0.7-3.1-0.7c-3.9,0-7,3.1-7,7c0,3.8,3.1,7,7,7s7-3.1,7-7c0-1-0.2-2.1-0.7-3l2.8-2.8
	C30.8,84.5,29.8,83.4,28.7,82.2z M22.9,93.5c-1.4,0-2.4-1-2.4-2.3c0-1.3,1.1-2.3,2.4-2.3c1.3,0,2.4,1,2.4,2.3
	C25.3,92.5,24.2,93.5,22.9,93.5z"/>
<path d="M72.5,45.7l2.7-2.7c0.9,0.4,1.9,0.7,3,0.7c3.9,0,7-3.1,7-7s-3.1-7-7-7s-7,3.1-7,7c0,1.1,0.2,2.2,0.7,3.1l-2.6,2.7
	C70.3,43.5,71.4,44.6,72.5,45.7z M78,34.5c1.3,0,2.4,1,2.4,2.3s-1.1,2.3-2.4,2.3c-1.4,0-2.4-1-2.4-2.3S76.7,34.5,78,34.5z"/>
<path d="M50.6,40.4C37.3,40.4,26.5,51,26.5,64c0,13,10.8,23.6,24.1,23.6C63.9,87.6,74.7,77,74.7,64C74.7,51,63.9,40.4,50.6,40.4z
	 M50.6,52.2c3.7,0,6.7,2.9,6.7,6.5c0,3.6-3,6.5-6.7,6.5c-3.7,0-6.7-2.9-6.7-6.5C43.9,55.2,46.9,52.2,50.6,52.2z M50.6,77.2
	c-4.5,0-8.5-1.8-11.5-4.7c0.7-3.3,2.8-6.2,5.8-7.8c1.7,1,3.6,1.5,5.7,1.5c2.1,0,4-0.6,5.7-1.5c3,1.6,5.1,4.4,5.8,7.8
	C59.1,75.4,55.1,77.2,50.6,77.2z"/>
</svg>
