<?xml version="1.0" encoding="utf-8"?>
<!-- Generator: Adobe Illustrator 22.1.0, SVG Export Plug-In . SVG Version: 6.00 Build 0)  -->
<svg version="1.1" id="Layer_1" xmlns="http://www.w3.org/2000/svg" xmlns:xlink="http://www.w3.org/1999/xlink" x="0px" y="0px"
	 viewBox="0 0 100 125" style="enable-background:new 0 0 100 125;" xml:space="preserve">
<style type="text/css">
	.st0{display:none;}
	.st1{display:inline;fill:#E0BFA4;}
	.st2{fill:none;}
</style>
<g class="st0">
	<rect x="-1543.3" y="-226.3" class="st1" width="1596.2" height="1545.2"/>
</g>
<g>
	<path d="M61.8,54.5h-2.1c-2.3,2.2-6.1,3.6-10.3,3.6s-8-1.4-10.3-3.6h-1.5c-7.5,0-13.6,4.6-13.6,10.3h50.8
		C74.8,59.1,69,54.5,61.8,54.5z"/>
	<path d="M49.4,24.9c-8.4,0-15.3,6.9-15.3,15.3S41,55.4,49.4,55.4s15.3-6.9,15.3-15.3S57.8,24.9,49.4,24.9z M49.4,52
		c-6.5,0-11.9-5.3-11.9-11.9c0-1,0.2-2,0.3-2.9c1.4,0.7,3.9,1.6,6.8,1.6c2.1,0,4.3-0.5,6.4-2c0.3-0.2,5.5-3.9,9.6-0.2
		c0.3,1,0.5,2.2,0.5,3.4C61.3,46.6,56,52,49.4,52z"/>
</g>
<path d="M93.5,107.9H83.3c0.6-0.8,1-1.9,1-3V71.8c0-2.7-2.3-5-5-5H20.7c-2.7,0-5,2.3-5,5v33.1c0,1.2,0.4,2.2,1,3H5.3
	c-0.5,0-0.9,0.4-0.9,0.9v0.2c0,0.5,0.4,0.9,0.9,0.9h88.2c0.5,0,0.9-0.4,0.9-0.9V109C94.4,108.3,94,107.9,93.5,107.9z M50.1,93.8
	c-3.1,0-5.7-2.5-5.7-5.7c0-3.1,2.5-5.7,5.7-5.7s5.7,2.5,5.7,5.7C55.8,91.3,53.2,93.8,50.1,93.8z"/>
<path d="M88.2,23.9c-1.5-5.8-7.4-9.4-13.3-7.9c-5.9,1.5-9.3,7.4-7.8,13.3c0.7,2.8,2.4,5,4.7,6.5l-2.9,4.3l11.5-3
	C86.2,35.7,89.7,29.7,88.2,23.9z M74.4,30.2h-1.9v-5h1.9V30.2z M81.5,30.2h-6.1v-5.1l2.8-3l1.2,0.2l-0.9,2.6h4.2L81.5,30.2z"/>
</svg>
