<?xml version="1.0" encoding="utf-8"?>
<!-- Generator: Adobe Illustrator 22.1.0, SVG Export Plug-In . SVG Version: 6.00 Build 0)  -->
<svg version="1.1" id="Layer_1" xmlns="http://www.w3.org/2000/svg" xmlns:xlink="http://www.w3.org/1999/xlink" x="0px" y="0px"
	 viewBox="0 0 100 125" style="enable-background:new 0 0 100 125;" xml:space="preserve">
<style type="text/css">
	.st0{display:none;}
	.st1{display:inline;fill:#E0BFA4;}
	.st2{fill:none;}
</style>
<g class="st0">
	<rect x="-1063.3" y="-226.3" class="st1" width="1596.2" height="1545.2"/>
</g>
<g transform="translate(0,-1036.3622)">
	<path d="M58.3,1053.9c-11.4,0-20.7,9.3-20.7,20.7c0,6.1,2.7,11.8,7.3,15.8H32.4c3-3.1,4.8-7.3,4.8-11.6c0-9.2-7.4-16.6-16.6-16.6
		c-9.2,0-16.6,7.4-16.6,16.6c0,4.6,2,9.1,5.4,12.2c-3.1,1.2-5.4,4.1-5.4,7.7v38.8c0,4.6,3.7,8.3,8.3,8.3h58.5c4.6,0,8.3-3.7,8.3-8.3
		v-12.3l17,14.9v-49.7l-17,14.9v-6.6c0-4.3-3.3-7.7-7.5-8.1c4.7-3.9,7.5-9.8,7.5-15.9C79,1063.2,69.7,1053.9,58.3,1053.9z"/>
</g>
</svg>
