<?xml version="1.0" encoding="utf-8"?>
<!-- Generator: Adobe Illustrator 22.1.0, SVG Export Plug-In . SVG Version: 6.00 Build 0)  -->
<svg version="1.1" id="Layer_1" xmlns="http://www.w3.org/2000/svg" xmlns:xlink="http://www.w3.org/1999/xlink" x="0px" y="0px"
	 viewBox="0 0 100 125" style="enable-background:new 0 0 100 125;" xml:space="preserve">
<style type="text/css">
	.st0{display:none;}
	.st1{display:inline;fill:#E0BFA4;}
	.st2{fill:none;}
</style>
<g class="st0">
	<rect x="-1423.3" y="-226.3" class="st1" width="1596.2" height="1545.2"/>
</g>
<g>
	<path d="M58,102.5l-1.9-5.3c-1.4,2.3-3,4.3-4.6,6.3c-0.1,0.2-0.3,0.3-0.4,0.5c-0.7,0-1.4,0.1-2.1,0.1c-0.7,0-1.4,0-2.1,0
		c-0.1-0.2-0.3-0.3-0.4-0.5c-4-4.6-7.4-10.3-9.7-16.6c3.9-0.8,8-1.2,12.2-1.2c1.1,0,2.2,0,3.3,0.1l-1.9-5.5c-0.4,0-0.9,0-1.3,0
		c-4.8,0-9.5,0.5-13.9,1.4c-1.2-4.4-2-9.2-2.2-14.2h12.9L45.2,65c-0.3-0.9-0.5-1.9-0.5-2.9H32.9c0.2-4.9,0.9-9.7,2.2-14.2
		c4.4,0.9,9.1,1.4,13.9,1.4c4.7,0,9.5-0.5,13.9-1.4c0.9,3.2,1.5,6.5,1.9,10l5.6,2c-0.3-4.5-1.1-9-2.2-13.2c4.2-1.2,8.3-2.9,12-4.8
		c0.1-0.1,0.3-0.1,0.4-0.2c4.2,5.8,7,12.8,7.5,20.5H77.1l15.9,5.5c0.2,0.1,0.5,0.2,0.7,0.3c0.1-1,0.1-2.1,0.1-3.2
		c0-24.7-20-44.7-44.7-44.7c-24.6,0-44.7,20-44.7,44.7c0,24.6,20,44.6,44.7,44.6c4.7,0,9.4-0.8,13.6-2.2
		C60.6,106.4,58.8,104.7,58,102.5z M77,37.4c-0.1,0.1-0.3,0.2-0.4,0.2c-3.2,1.6-6.5,2.9-10.1,3.8c-1.9-5.1-4.2-9.8-7.2-13.9
		c-0.1-0.2-0.3-0.4-0.4-0.6C65.9,28.7,72,32.4,77,37.4z M47,25.7c0.7,0,1.4-0.1,2.1-0.1c0.7,0,1.4,0,2.1,0.1
		c0.1,0.1,0.3,0.3,0.4,0.5c4,4.6,7.4,10.3,9.7,16.6c-3.9,0.8-8,1.2-12.2,1.2c-4.2,0-8.3-0.4-12.2-1.2c2.4-6.3,5.6-11.9,9.7-16.6
		C46.7,26,46.8,25.8,47,25.7z M39.1,26.9c-0.1,0.2-0.3,0.4-0.4,0.6c-3,4.1-5.3,8.9-7.2,14c-3.6-1-6.9-2.3-10.1-3.8
		c-0.1-0.1-0.3-0.1-0.4-0.2C25.9,32.4,32.1,28.7,39.1,26.9z M17.4,41.6c0.1,0.1,0.3,0.1,0.4,0.2c3.8,2,7.8,3.6,12,4.8
		c-1.3,4.9-2.2,10.1-2.3,15.5H9.9C10.4,54.4,13.2,47.4,17.4,41.6z M17.4,88c-4.2-5.8-7-12.8-7.5-20.4h17.7c0.2,5.3,1,10.6,2.3,15.5
		c-4.2,1.2-8.3,2.9-12,4.8C17.6,87.8,17.5,87.9,17.4,88z M21,92.2c0.1-0.1,0.3-0.1,0.4-0.2c3.2-1.6,6.5-2.9,10.1-3.8
		c1.9,5.1,4.2,9.8,7.2,14c0.1,0.2,0.3,0.4,0.4,0.6C32.1,100.8,25.9,97.2,21,92.2z"/>
	<path d="M95.1,94.6l-13-13l9-4.5c1.5-0.8,1.4-3-0.2-3.6l-37.5-13c-1.5-0.5-3,0.9-2.5,2.5l13,37.5c0.6,1.6,2.8,1.8,3.6,0.2l4.5-9
		l13,13c0.8,0.8,2,0.8,2.7,0l7.4-7.4C95.9,96.6,95.9,95.4,95.1,94.6z"/>
</g>
</svg>
